<svg width="24" height="24" viewBox="0 0 24 24" fill="none" xmlns="http://www.w3.org/2000/svg">
<path d="M15.6 21.4L13 17H10C9.71667 17 9.47917 16.9041 9.2875 16.7125C9.09583 16.5208 9 16.2833 9 16C9 15.7166 9.09583 15.4791 9.2875 15.2875C9.47917 15.0958 9.71667 15 10 15H13L15.6 10.6H16.7L15.4 15H18.25L19 14H20L19.4 16L20 18H19L18.25 17H15.4L16.7 21.4H15.6ZM7.3 13.4L8.6 8.99998H5.75L5 9.99998H4L4.6 7.99998L4 5.99998H5L5.75 6.99998H8.6L7.3 2.59998H8.4L11 6.99998H14C14.2833 6.99998 14.5208 7.09581 14.7125 7.28748C14.9042 7.47914 15 7.71664 15 7.99998C15 8.28331 14.9042 8.52081 14.7125 8.71248C14.5208 8.90414 14.2833 8.99998 14 8.99998H11L8.4 13.4H7.3Z" fill="#202426"/>
</svg>
